<?xml version="1.0" standalone="no"?>
<!DOCTYPE svg PUBLIC "-//W3C//DTD SVG 1.1//EN" "http://www.w3.org/Graphics/SVG/1.1/DTD/svg11.dtd">

<svg width="135" height="50" viewBox="0 0 135 50" 
  xmlns="http://www.w3.org/2000/svg"
  xmlns:xlink="http://www.w3.org/1999/xlink">


<polyline points="0.0, 28.140770797685523 0.7988165680473372, 25.012991591233014 1.5976331360946745, 25.29127399388476 2.396449704142012, 25.11103474285243 3.195266272189349, 20.02754746459956 3.994082840236686, 23.839042362689508 4.792899408284024, 25.88162697653274 5.591715976331361, 22.7737097457293 6.390532544378698, 28.048555604874636 7.189349112426036, 32.590102757763525 7.988165680473372, 27.557529409809835 8.78698224852071, 27.95422266155203 9.585798816568047, 27.95422266155203 10.384615384615385, 24.69620447163682 11.183431952662723, 23.24958223601033 11.982248520710058, 23.24958223601033 12.781065088757396, 31.70925776018804 13.579881656804734, 31.70925776018804 14.378698224852071, 26.767409822391713 15.177514792899409, 26.767409822391713 15.976331360946745, 24.577844854855023 16.775147928994084, 24.577844854855023 17.57396449704142, 26.238918220666367 18.37278106508876, 26.73009596066032 19.171597633136095, 23.898269319988348 19.970414201183434, 26.5314296679745 20.76923076923077, 23.64658418171666 21.56804733727811, 24.459010399374417 22.366863905325445, 23.88354328667353 23.16568047337278, 25.383926587987844 23.964497041420117, 26.458968294371083 24.763313609467456, 27.58257185686726 25.562130177514792, 26.097481214411932 26.36094674556213, 27.134578123481205 27.159763313609467, 26.63911793457181 27.958579881656807, 28.958375850200667 28.757396449704142, 28.10935845146124 29.55621301775148, 25.598589253812065 30.355029585798817, 28.368467316395733 31.153846153846157, 26.833715089439668 31.95266272189349, 25.874879889831764 32.751479289940825, 27.29450209160519 33.55029585798817, 24.407351444414 34.349112426035504, 24.396069021691716 35.14792899408284, 25.99493218703173 35.94674556213018, 25.88826521740562 36.74556213017752, 28.297463324624207 37.54437869822485, 31.231630793281518 38.34319526627219, 28.910532145116324 39.142011834319526, 29.713773421251112 39.94082840236687, 24.58086934824611 40.7396449704142, 23.940378178681502 41.53846153846154, 31.972047220070422 42.337278106508876, 26.33376756007129 43.13609467455622, 25.932500382645173 43.93491124260355, 25.987408381378724 44.73372781065089, 27.340124060204936 45.532544378698226, 27.1707742948458 46.33136094674556, 27.1707742948458 47.1301775147929, 26.46953045550819 47.928994082840234, 30.49846606786066 48.72781065088758, 26.763912364845964 49.52662721893491, 27.05124214566822 50.32544378698225, 46.025757340333584 51.124260355029584, 50.0 51.92307692307693, 23.541598390463488 52.72189349112426, 28.440491029585306 53.5207100591716, 26.40003641284361 54.319526627218934, 27.877513473927706 55.11834319526627, 28.953948285256075 55.91715976331361, 27.543471434542795 56.71597633136094, 29.66164375043509 57.514792899408285, 26.123144682480497 58.31360946745562, 24.83972271609068 59.11242603550296, 26.355419435716858 59.91124260355029, 31.67371497355611 60.710059171597635, 26.878802801713537 61.50887573964497, 27.60404341576372 62.307692307692314, 27.145778505419997 63.10650887573964, 27.68283067215045 63.90532544378698, 0.0 64.70414201183432, 35.21057869294812 65.50295857988165, 26.03979146734848 66.30177514792899, 24.705659969337297 67.10059171597634, 26.848946758356078 67.89940828402366, 24.153310597432448 68.69822485207101, 26.268170160000192 69.49704142011834, 26.191920905554078 70.29585798816568, 27.34311281177595 71.09467455621302, 27.62941279965907 71.89349112426036, 30.34215952951414 72.6923076923077, 22.802360424852864 73.49112426035504, 27.428971505204753 74.28994082840237, 26.680892126489237 75.0887573964497, 28.034829615861725 75.88757396449704, 29.730654870819095 76.68639053254438, 27.85574889040986 77.48520710059172, 26.529470227974333 78.28402366863905, 27.735419043282928 79.0828402366864, 26.55062661244905 79.88165680473374, 27.954658314711377 80.68047337278107, 26.16896670889397 81.4792899408284, 28.072220393461418 82.27810650887574, 24.108360972347725 83.07692307692308, 29.556118960082035 83.87573964497041, 25.622669402650246 84.67455621301775, 28.81968954119768 85.4733727810651, 30.511041937853683 86.27218934911244, 23.186518017638228 87.07100591715975, 24.57143033753617 87.8698224852071, 27.093852967990045 88.66863905325444, 27.524919660304644 89.46745562130178, 24.89783187673783 90.26627218934911, 24.977790976595895 91.06508875739645, 26.220810129428312 91.8639053254438, 26.858033320590724 92.66272189349112, 27.634894048739483 93.46153846153845, 25.558467899440874 94.2603550295858, 27.648690923352902 95.05917159763314, 29.088563313002886 95.85798816568047, 27.381827560695704 96.65680473372781, 27.902492255924727 97.45562130177515, 26.92934134308174 98.2544378698225, 27.91121562625775 99.05325443786982, 26.270219293706077 99.85207100591715, 25.062471357232464 100.6508875739645, 27.210488699717338 101.44970414201183, 28.53068085683166 102.24852071005917, 24.443742654749652 103.04733727810651, 25.807192886924184 103.84615384615385, 26.648684976989408 104.64497041420118, 29.12741573598112 105.44378698224853, 31.21917410081539 106.24260355029585, 28.218617314789817 107.0414201183432, 28.06228845403383 107.84023668639053, 29.503112714135625 108.63905325443787, 28.70235845591141 109.43786982248521, 26.25593203348512 110.23668639053254, 28.401701022019203 111.03550295857988, 30.960639793502814 111.83431952662723, 27.90985263123227 112.63313609467457, 29.514392336528637 113.43195266272188, 25.426053366245306 114.23076923076923, 28.194101612670448 115.02958579881657, 30.196708534455137 115.82840236686391, 29.508267849441815 116.62721893491124, 29.35483033941553 117.42603550295858, 29.050260624894808 118.22485207100593, 32.92125204939284 119.02366863905324, 28.503612010453512 119.82248520710058, 28.147068356197778 120.62130177514793, 27.384251445919904 121.42011834319527, 35.595998298176376 122.2189349112426, 27.768981863627484 123.01775147928994, 25.88325788195942 123.81656804733728, 30.112098636352385 124.61538461538463, 30.824423117050713 125.41420118343194, 27.089307824372078 126.21301775147928, 29.649520520341326 127.01183431952663, 31.179678656384947 127.81065088757396, 27.01751420080419 128.60946745562129, 28.63196573669125 129.40828402366864, 28.584478436710597 130.20710059171597, 29.472360690202226 131.0059171597633, 27.934075905535742 131.80473372781066, 28.950364858896087 132.60355029585799, 29.34345164193701 133.40236686390534, 26.161021242169447 134.20118343195267, 31.439134824634817" fill="none" stroke="#ed5565" stroke-width="1.25"/>

</svg>