<?xml version="1.0" standalone="no"?>
<!DOCTYPE svg PUBLIC "-//W3C//DTD SVG 1.1//EN" "http://www.w3.org/Graphics/SVG/1.1/DTD/svg11.dtd">

<svg width="135" height="50" viewBox="0 0 135 50" 
  xmlns="http://www.w3.org/2000/svg"
  xmlns:xlink="http://www.w3.org/1999/xlink">


<polyline points="0.0, 6.0095935637233575 0.7988165680473372, 8.71697792739209 1.5976331360946745, 17.004283018186104 2.396449704142012, 23.077030259793922 3.195266272189349, 20.558061238638064 3.994082840236686, 19.788810950843757 4.792899408284024, 20.56592304549935 5.591715976331361, 23.63335142408086 6.390532544378698, 27.69866041470029 7.189349112426036, 39.17039445993268 7.988165680473372, 33.5280742711777 8.78698224852071, 33.75458076828429 9.585798816568047, 31.446176303303325 10.384615384615385, 28.7901132155937 11.183431952662723, 28.21466402289758 11.982248520710058, 38.031966923736746 12.781065088757396, 41.95020458173887 13.579881656804734, 43.40969829457848 14.378698224852071, 36.30300592601892 15.177514792899409, 31.999248309290362 15.976331360946745, 28.721650924635327 16.775147928994084, 31.209055924414564 17.57396449704142, 33.66571206601779 18.37278106508876, 29.62839120036329 19.171597633136095, 31.15932707304836 19.970414201183434, 30.74748475908329 20.76923076923077, 31.477389247335264 21.56804733727811, 30.007791680630653 22.366863905325445, 25.35763782617829 23.16568047337278, 23.399380835221017 23.964497041420117, 26.31729364746348 24.763313609467456, 24.804843021269022 25.562130177514792, 25.42609442181177 26.36094674556213, 22.900523791003295 27.159763313609467, 25.25547985939958 27.958579881656807, 22.77478837513013 28.757396449704142, 25.745004384715898 29.55621301775148, 25.68013095968818 30.355029585798817, 29.932117605245423 31.153846153846157, 27.02288491056633 31.95266272189349, 28.177968094406502 32.751479289940825, 32.376872602618064 33.55029585798817, 32.52617397189648 34.349112426035504, 37.25255293598362 35.14792899408284, 37.04529543018549 35.94674556213018, 34.309497812565944 36.74556213017752, 32.55104606272533 37.54437869822485, 31.548759515404324 38.34319526627219, 29.52445275885884 39.142011834319526, 31.896589464894877 39.94082840236687, 29.743269962235253 40.7396449704142, 21.85996461706466 41.53846153846154, 22.909908626426663 42.337278106508876, 21.3336007712183 43.13609467455622, 18.798189533861205 43.93491124260355, 18.149745355065487 44.73372781065089, 19.31548272660477 45.532544378698226, 18.258895967617786 46.33136094674556, 18.60244116547551 47.1301775147929, 18.606398734315974 47.928994082840234, 19.187109341030723 48.72781065088758, 19.515557687869677 49.52662721893491, 18.96204143884786 50.32544378698225, 31.920927837012602 51.124260355029584, 26.814918012852416 51.92307692307693, 21.039279183174482 52.72189349112426, 19.79353808822087 53.5207100591716, 20.682498743234085 54.319526627218934, 30.057806419658313 55.11834319526627, 34.681034759989636 55.91715976331361, 39.688085778168244 56.71597633136094, 38.12313514936511 57.514792899408285, 37.85070237133412 58.31360946745562, 36.94102421376533 59.11242603550296, 46.46063118433983 59.91124260355029, 44.64934247820522 60.710059171597635, 43.57315833469917 61.50887573964497, 42.81990173338889 62.307692307692314, 39.78159476055686 63.10650887573964, 41.04017712946067 63.90532544378698, 27.458040721506105 64.70414201183432, 50.0 65.50295857988165, 42.541869634712846 66.30177514792899, 43.50879008816537 67.10059171597634, 42.083360372391475 67.89940828402366, 41.059707849047925 68.69822485207101, 39.844768686193945 69.49704142011834, 36.87288936195711 70.29585798816568, 36.47956116169029 71.09467455621302, 37.87075838054562 71.89349112426036, 38.783233969932674 72.6923076923077, 37.147287883406314 73.49112426035504, 37.469290275197174 74.28994082840237, 39.62535866280339 75.0887573964497, 36.934057429512265 75.88757396449704, 38.320080582859454 76.68639053254438, 37.729206571429174 77.48520710059172, 38.16262117581176 78.28402366863905, 35.52651043801392 79.0828402366864, 32.09619878611819 79.88165680473374, 34.483997892702696 80.68047337278107, 33.090914592335956 81.4792899408284, 36.09102715485944 82.27810650887574, 34.25118999654785 83.07692307692308, 34.909467157647505 83.87573964497041, 33.574495397152056 84.67455621301775, 28.19835683424043 85.4733727810651, 30.431876796081347 86.27218934911244, 29.153738650870515 87.07100591715975, 31.713060693399754 87.8698224852071, 32.34190578385058 88.66863905325444, 29.289178304256396 89.46745562130178, 30.324843371825132 90.26627218934911, 24.8181166714137 91.06508875739645, 23.257932596126544 91.8639053254438, 24.83264248612486 92.66272189349112, 25.042664820549998 93.46153846153845, 22.051975584925213 94.2603550295858, 22.54012833604705 95.05917159763314, 19.628771630786005 95.85798816568047, 20.772043216706635 96.65680473372781, 19.198791556291585 97.45562130177515, 13.086525133564416 98.2544378698225, 13.507372887051867 99.05325443786982, 13.086349532890992 99.85207100591715, 8.40759973196074 100.6508875739645, 11.233354150223638 101.44970414201183, 9.798904440192965 102.24852071005917, 3.9766088701767637 103.04733727810651, 2.583377719751782 103.84615384615385, 0.0 104.64497041420118, 1.785127077433536 105.44378698224853, 4.601750486580819 106.24260355029585, 5.062555430095191 107.0414201183432, 5.697085796063534 107.84023668639053, 8.411315267788183 108.63905325443787, 5.787439301834882 109.43786982248521, 4.745590231641685 110.23668639053254, 5.76498466955659 111.03550295857988, 7.727099609859783 111.83431952662723, 6.640985863266001 112.63313609467457, 7.446277011544024 113.43195266272188, 9.944431300408604 114.23076923076923, 3.0962333317726203 115.02958579881657, 3.944144673257164 115.82840236686391, 3.421417107434203 116.62721893491124, 5.751070071992947 117.42603550295858, 8.232179849036363 118.22485207100593, 8.927115132113096 119.02366863905324, 10.629789154964573 119.82248520710058, 9.359045774457813 120.62130177514793, 6.296573483002632 121.42011834319527, 13.75679239254451 122.2189349112426, 13.291094760520242 123.01775147928994, 9.637160509870341 123.81656804733728, 9.634935302523022 124.61538461538463, 12.303750275466047 125.41420118343194, 11.32515027343544 126.21301775147928, 11.30267698605461 127.01183431952663, 20.470743696997783 127.81065088757396, 15.326122775368692 128.60946745562129, 13.9351526278853 129.40828402366864, 11.828376955225028 130.20710059171597, 13.787400592120097 131.0059171597633, 11.58888197683842 131.80473372781066, 16.20271381748192 132.60355029585799, 15.957746069521598 133.40236686390534, 13.838837103188203 134.20118343195267, 16.988597231124842" fill="none" stroke="#ed5565" stroke-width="1.25"/>

</svg>