<?xml version="1.0" standalone="no"?>
<!DOCTYPE svg PUBLIC "-//W3C//DTD SVG 1.1//EN" "http://www.w3.org/Graphics/SVG/1.1/DTD/svg11.dtd">

<svg width="135" height="50" viewBox="0 0 135 50" 
  xmlns="http://www.w3.org/2000/svg"
  xmlns:xlink="http://www.w3.org/1999/xlink">


<polyline points="0.0, 19.50923930829301 0.7988165680473372, 22.3918973093039 1.5976331360946745, 24.031191019903446 2.396449704142012, 26.89519759058145 3.195266272189349, 25.54342493804058 3.994082840236686, 24.114041949819136 4.792899408284024, 25.41699402750642 5.591715976331361, 27.367151850263827 6.390532544378698, 31.94476932765359 7.189349112426036, 40.88701563173929 7.988165680473372, 36.50207216095097 8.78698224852071, 36.09851698369827 9.585798816568047, 33.9988308248145 10.384615384615385, 32.53437348445616 11.183431952662723, 33.63296034290513 11.982248520710058, 42.23856577265041 12.781065088757396, 48.3734619216976 13.579881656804734, 50.0 14.378698224852071, 45.18664152627545 15.177514792899409, 41.077181055200626 15.976331360946745, 37.87666003923581 16.775147928994084, 40.04218679796101 17.57396449704142, 41.100141820844556 18.37278106508876, 39.028097502990015 19.171597633136095, 38.86315259888552 19.970414201183434, 39.907958385479304 20.76923076923077, 41.71016248528324 21.56804733727811, 41.34256219837702 22.366863905325445, 37.31644372238158 23.16568047337278, 34.88406448842964 23.964497041420117, 36.43552584510872 24.763313609467456, 33.62006562255145 25.562130177514792, 34.009243398008635 26.36094674556213, 33.588681270698544 27.159763313609467, 34.90590359742008 27.958579881656807, 32.959686353323534 28.757396449704142, 35.10889502587579 29.55621301775148, 34.73138204606065 30.355029585798817, 35.914275796863855 31.153846153846157, 36.26722788464072 31.95266272189349, 36.26696577071204 32.751479289940825, 40.29555541016345 33.55029585798817, 39.524044611913 34.349112426035504, 41.597040708696355 35.14792899408284, 40.88609288787327 35.94674556213018, 36.94260948007773 36.74556213017752, 34.412934766707444 37.54437869822485, 34.406599036415614 38.34319526627219, 32.86076890052909 39.142011834319526, 35.994221894534846 39.94082840236687, 33.627195514216346 40.7396449704142, 22.067490312847553 41.53846153846154, 24.129869715500867 42.337278106508876, 22.690468655987914 43.13609467455622, 21.78033825893952 43.93491124260355, 21.80862542833655 44.73372781065089, 23.206950446107626 45.532544378698226, 23.421604602086273 46.33136094674556, 24.66777276355532 47.1301775147929, 24.92078304728205 47.928994082840234, 23.773098287520167 48.72781065088758, 24.39743199607639 49.52662721893491, 25.106328813604918 50.32544378698225, 35.99168514038533 51.124260355029584, 32.28117182271345 51.92307692307693, 27.577020249923677 52.72189349112426, 24.631569715038214 53.5207100591716, 26.05097981468079 54.319526627218934, 32.96272208599923 55.11834319526627, 37.04874746007962 55.91715976331361, 39.70266111511345 56.71597633136094, 38.448277816771146 57.514792899408285, 37.86716730167143 58.31360946745562, 38.24644442737631 59.11242603550296, 46.61022369834038 59.91124260355029, 45.20521239686963 60.710059171597635, 44.76828360622784 61.50887573964497, 43.3853554519113 62.307692307692314, 40.927777746252836 63.10650887573964, 45.20013309045305 63.90532544378698, 34.145486919418474 64.70414201183432, 48.01626439268103 65.50295857988165, 45.3852310574098 66.30177514792899, 45.31219437935594 67.10059171597634, 43.88146210821827 67.89940828402366, 43.77434601718605 68.69822485207101, 40.92732080950109 69.49704142011834, 37.53450377299593 70.29585798816568, 37.906958862197996 71.09467455621302, 36.781540891405704 71.89349112426036, 37.780483220511094 72.6923076923077, 33.928774102238435 73.49112426035504, 35.31810552886104 74.28994082840237, 36.932704590700695 75.0887573964497, 36.68579266833315 75.88757396449704, 38.32116743263552 76.68639053254438, 37.33475945846352 77.48520710059172, 36.126721947931365 78.28402366863905, 35.03518182197675 79.0828402366864, 31.698754805080686 79.88165680473374, 33.86628230126858 80.68047337278107, 32.031278053451686 81.4792899408284, 33.18077715086308 82.27810650887574, 30.8673444741311 83.07692307692308, 32.815588790347284 83.87573964497041, 31.53021616548702 84.67455621301775, 27.131990860215044 85.4733727810651, 28.081886273716027 86.27218934911244, 27.35016285247206 87.07100591715975, 28.98229630645679 87.8698224852071, 30.124466881723727 88.66863905325444, 27.62920143553287 89.46745562130178, 29.358200626843573 90.26627218934911, 24.077328956059787 91.06508875739645, 23.861939507187056 91.8639053254438, 24.718225094415217 92.66272189349112, 26.11165494515335 93.46153846153845, 23.934109236634608 94.2603550295858, 25.101608443728086 95.05917159763314, 25.580550715099555 95.85798816568047, 26.54675531128032 96.65680473372781, 27.46017250609431 97.45562130177515, 25.973114427170852 98.2544378698225, 25.791187930681602 99.05325443786982, 26.74129740060822 99.85207100591715, 22.463806833284647 100.6508875739645, 24.541247521563147 101.44970414201183, 24.62759391674352 102.24852071005917, 22.297863516088015 103.04733727810651, 22.51074415144916 103.84615384615385, 15.711338479768491 104.64497041420118, 14.710296032682708 105.44378698224853, 11.524791555513069 106.24260355029585, 11.37265873427697 107.0414201183432, 11.791428344133301 107.84023668639053, 9.70825430082163 108.63905325443787, 9.190741251014504 109.43786982248521, 5.778072616314735 110.23668639053254, 6.134790817153856 111.03550295857988, 7.052461622174485 111.83431952662723, 5.846769990040974 112.63313609467457, 6.5242812121901 113.43195266272188, 9.742214441481636 114.23076923076923, 0.0 115.02958579881657, 1.8919745720746932 115.82840236686391, 2.0923395369360605 116.62721893491124, 1.707428894061834 117.42603550295858, 2.8027439879555875 118.22485207100593, 3.974460188999028 119.02366863905324, 4.635079560388373 119.82248520710058, 3.5025865650721117 120.62130177514793, 2.7084292806837866 121.42011834319527, 10.444827980106613 122.2189349112426, 7.072422775388287 123.01775147928994, 3.2990474756376362 123.81656804733728, 5.023287588637112 124.61538461538463, 8.4815599217788 125.41420118343194, 8.01749535903691 126.21301775147928, 7.2384998917609025 127.01183431952663, 15.881165750723767 127.81065088757396, 10.800765125366965 128.60946745562129, 10.536733911601907 129.40828402366864, 8.493666606150612 130.20710059171597, 10.454281764686668 131.0059171597633, 7.301295217906686 131.80473372781066, 9.389754573346499 132.60355029585799, 9.315474692687136 133.40236686390534, 7.9604094962828125 134.20118343195267, 13.852163933632722" fill="none" stroke="#57bd0f" stroke-width="1.25"/>

</svg>