<?xml version="1.0" standalone="no"?>
<!DOCTYPE svg PUBLIC "-//W3C//DTD SVG 1.1//EN" "http://www.w3.org/Graphics/SVG/1.1/DTD/svg11.dtd">

<svg width="135" height="50" viewBox="0 0 135 50" 
  xmlns="http://www.w3.org/2000/svg"
  xmlns:xlink="http://www.w3.org/1999/xlink">


<polyline points="0.0, 17.50970542622629 0.7988165680473372, 20.933189298336615 1.5976331360946745, 23.198453054653864 2.396449704142012, 25.417822713043197 3.195266272189349, 23.609780526165984 3.994082840236686, 22.30954929962176 4.792899408284024, 22.17205032393669 5.591715976331361, 26.108836848990542 6.390532544378698, 27.194435847806364 7.189349112426036, 36.62311473141101 7.988165680473372, 33.59233721811357 8.78698224852071, 32.04492992390471 9.585798816568047, 31.227184989529867 10.384615384615385, 28.119001877435924 11.183431952662723, 28.94799534795875 11.982248520710058, 38.037053694635176 12.781065088757396, 43.325731168905115 13.579881656804734, 44.77242981581453 14.378698224852071, 39.38402053144358 15.177514792899409, 33.713710071999444 15.976331360946745, 31.939013409797447 16.775147928994084, 34.950312870159216 17.57396449704142, 34.091339261064455 18.37278106508876, 33.72974946730668 19.171597633136095, 32.26433290950534 19.970414201183434, 34.987027509489764 20.76923076923077, 37.26669319376245 21.56804733727811, 36.012412734125014 22.366863905325445, 31.225206618559792 23.16568047337278, 29.868996765408482 23.964497041420117, 31.114426993567246 24.763313609467456, 31.008915358133205 25.562130177514792, 30.64907708262366 26.36094674556213, 30.201961477436644 27.159763313609467, 30.768672738119385 27.958579881656807, 28.87951541828912 28.757396449704142, 31.516276234909533 29.55621301775148, 30.312902994794054 30.355029585798817, 33.15521026499068 31.153846153846157, 33.99200074447221 31.95266272189349, 33.73041112125139 32.751479289940825, 36.40649590659892 33.55029585798817, 35.909556868135226 34.349112426035504, 39.183139519712824 35.14792899408284, 38.48753220018353 35.94674556213018, 34.66355571715039 36.74556213017752, 34.935446752783264 37.54437869822485, 34.01210671122589 38.34319526627219, 33.16532011304142 39.142011834319526, 36.539232674207355 39.94082840236687, 33.46100152264269 40.7396449704142, 26.050497494966258 41.53846153846154, 28.046572948734607 42.337278106508876, 26.646050750700233 43.13609467455622, 25.87249331835904 43.93491124260355, 26.162237040749115 44.73372781065089, 26.952426063932723 45.532544378698226, 26.885511494984073 46.33136094674556, 27.50644871363867 47.1301775147929, 28.42341179169515 47.928994082840234, 27.550865080042573 48.72781065088758, 27.138990386446228 49.52662721893491, 27.422482165880997 50.32544378698225, 35.40036894828797 51.124260355029584, 34.07956150695697 51.92307692307693, 30.34582903274332 52.72189349112426, 25.334265521596755 53.5207100591716, 25.58202936584561 54.319526627218934, 35.715587272496826 55.11834319526627, 37.79894874179939 55.91715976331361, 41.694866178957724 56.71597633136094, 41.37632914532064 57.514792899408285, 39.34461876824329 58.31360946745562, 39.9688327418325 59.11242603550296, 45.3865325803687 59.91124260355029, 43.972463605318275 60.710059171597635, 42.859707726738186 61.50887573964497, 41.52039637973689 62.307692307692314, 40.172305972271275 63.10650887573964, 41.958824550482404 63.90532544378698, 25.288877601477015 64.70414201183432, 50.0 65.50295857988165, 44.6856278226914 66.30177514792899, 45.11708318228709 67.10059171597634, 43.2405011793318 67.89940828402366, 40.916381869812476 68.69822485207101, 40.62896587349693 69.49704142011834, 37.55332502466573 70.29585798816568, 35.965902661322495 71.09467455621302, 37.34378514095773 71.89349112426036, 38.9991952065646 72.6923076923077, 35.028032080748346 73.49112426035504, 36.1000996724027 74.28994082840237, 37.44372006917862 75.0887573964497, 35.71624373292824 75.88757396449704, 37.06292165162648 76.68639053254438, 34.99035399055745 77.48520710059172, 34.01322049014829 78.28402366863905, 29.662782766706336 79.0828402366864, 26.805820376441243 79.88165680473374, 28.669006999973174 80.68047337278107, 26.14861285083356 81.4792899408284, 27.392948319120734 82.27810650887574, 21.020815465276435 83.07692307692308, 23.442706857098603 83.87573964497041, 18.93793180044903 84.67455621301775, 18.560227089792075 85.4733727810651, 19.616044431382377 86.27218934911244, 18.15249151485672 87.07100591715975, 19.405644424626157 87.8698224852071, 20.722288816433487 88.66863905325444, 17.328083710369246 89.46745562130178, 17.831845592619704 90.26627218934911, 12.899357981659678 91.06508875739645, 14.361831712756814 91.8639053254438, 13.098639892288 92.66272189349112, 13.95039572667655 93.46153846153845, 12.694749221905106 94.2603550295858, 13.584072231409206 95.05917159763314, 15.098264550960664 95.85798816568047, 16.252531856705605 96.65680473372781, 15.592990735204515 97.45562130177515, 13.641603548803683 98.2544378698225, 14.060938808092471 99.05325443786982, 12.931820916697975 99.85207100591715, 8.438272838914116 100.6508875739645, 9.065348443135822 101.44970414201183, 10.543200133259127 102.24852071005917, 5.902450570980595 103.04733727810651, 6.017195529395114 103.84615384615385, 0.9392970101326404 104.64497041420118, 2.919359493407323 105.44378698224853, 3.7128997080603443 106.24260355029585, 3.5878524605489606 107.0414201183432, 2.8350138138193266 107.84023668639053, 3.8937425589933654 108.63905325443787, 2.455788921337803 109.43786982248521, 0.48266010339583776 110.23668639053254, 2.631554648520436 111.03550295857988, 5.2622343690009 111.83431952662723, 3.638893971762995 112.63313609467457, 4.693277867791714 113.43195266272188, 7.079609301695207 114.23076923076923, 0.171408337173572 115.02958579881657, 1.1402852826980174 115.82840236686391, 0.01581374407494001 116.62721893491124, 0.0 117.42603550295858, 2.586311109535562 118.22485207100593, 5.172912473915316 119.02366863905324, 4.345214532741229 119.82248520710058, 4.956149813948861 120.62130177514793, 3.5154534151620607 121.42011834319527, 12.249651351592966 122.2189349112426, 8.670072117311497 123.01775147928994, 3.7802271688715714 123.81656804733728, 4.845567235123167 124.61538461538463, 8.707335401466482 125.41420118343194, 8.812174454289025 126.21301775147928, 8.372895721627739 127.01183431952663, 14.668687345180118 127.81065088757396, 8.838260498610117 128.60946745562129, 8.3438352753944 129.40828402366864, 6.513507897790941 130.20710059171597, 8.586133661223233 131.0059171597633, 3.769801932837602 131.80473372781066, 6.537448566735657 132.60355029585799, 5.656945068887011 133.40236686390534, 2.4821561326874084 134.20118343195267, 9.51901307619457" fill="none" stroke="#57bd0f" stroke-width="1.25"/>

</svg>